<svg xmlns="http://www.w3.org/2000/svg" width="375" viewBox="0 0 375 375" height="375" version="1.0"><defs><clipPath id="a"><path d="M 87 152 L 156 152 L 156 207 L 87 207 Z M 87 152"/></clipPath><clipPath id="b"><path d="M 132.601562 248.765625 L -0.207031 182.332031 L 41.730469 98.488281 L 174.542969 164.921875 Z M 132.601562 248.765625"/></clipPath><clipPath id="c"><path d="M 132.648438 248.789062 L -0.164062 182.355469 L 41.777344 98.507812 L 174.589844 164.941406 Z M 132.648438 248.789062"/></clipPath><clipPath id="d"><path d="M 23 189 L 24 189 L 24 190 L 23 190 Z M 23 189"/></clipPath><clipPath id="e"><path d="M 132.601562 248.765625 L -0.207031 182.332031 L 41.730469 98.488281 L 174.542969 164.921875 Z M 132.601562 248.765625"/></clipPath><clipPath id="f"><path d="M 132.648438 248.789062 L -0.164062 182.355469 L 41.777344 98.507812 L 174.589844 164.941406 Z M 132.648438 248.789062"/></clipPath><clipPath id="g"><path d="M 23 189 L 24 189 L 24 191 L 23 191 Z M 23 189"/></clipPath><clipPath id="h"><path d="M 132.601562 248.765625 L -0.207031 182.332031 L 41.730469 98.488281 L 174.542969 164.921875 Z M 132.601562 248.765625"/></clipPath><clipPath id="i"><path d="M 132.648438 248.789062 L -0.164062 182.355469 L 41.777344 98.507812 L 174.589844 164.941406 Z M 132.648438 248.789062"/></clipPath><clipPath id="j"><path d="M 22 188 L 24 188 L 24 190 L 22 190 Z M 22 188"/></clipPath><clipPath id="k"><path d="M 132.601562 248.765625 L -0.207031 182.332031 L 41.730469 98.488281 L 174.542969 164.921875 Z M 132.601562 248.765625"/></clipPath><clipPath id="l"><path d="M 132.648438 248.789062 L -0.164062 182.355469 L 41.777344 98.507812 L 174.589844 164.941406 Z M 132.648438 248.789062"/></clipPath><clipPath id="m"><path d="M 23 190 L 24 190 L 24 191 L 23 191 Z M 23 190"/></clipPath><clipPath id="n"><path d="M 132.601562 248.765625 L -0.207031 182.332031 L 41.730469 98.488281 L 174.542969 164.921875 Z M 132.601562 248.765625"/></clipPath><clipPath id="o"><path d="M 132.648438 248.789062 L -0.164062 182.355469 L 41.777344 98.507812 L 174.589844 164.941406 Z M 132.648438 248.789062"/></clipPath><clipPath id="p"><path d="M 23 189 L 24 189 L 24 190 L 23 190 Z M 23 189"/></clipPath><clipPath id="q"><path d="M 132.601562 248.765625 L -0.207031 182.332031 L 41.730469 98.488281 L 174.542969 164.921875 Z M 132.601562 248.765625"/></clipPath><clipPath id="r"><path d="M 132.648438 248.789062 L -0.164062 182.355469 L 41.777344 98.507812 L 174.589844 164.941406 Z M 132.648438 248.789062"/></clipPath><clipPath id="s"><path d="M 24 194 L 25 194 L 25 195 L 24 195 Z M 24 194"/></clipPath><clipPath id="t"><path d="M 132.601562 248.765625 L -0.207031 182.332031 L 41.730469 98.488281 L 174.542969 164.921875 Z M 132.601562 248.765625"/></clipPath><clipPath id="u"><path d="M 132.648438 248.789062 L -0.164062 182.355469 L 41.777344 98.507812 L 174.589844 164.941406 Z M 132.648438 248.789062"/></clipPath><clipPath id="v"><path d="M 22 188 L 23 188 L 23 189 L 22 189 Z M 22 188"/></clipPath><clipPath id="w"><path d="M 132.601562 248.765625 L -0.207031 182.332031 L 41.730469 98.488281 L 174.542969 164.921875 Z M 132.601562 248.765625"/></clipPath><clipPath id="x"><path d="M 132.648438 248.789062 L -0.164062 182.355469 L 41.777344 98.507812 L 174.589844 164.941406 Z M 132.648438 248.789062"/></clipPath><clipPath id="y"><path d="M 24 194 L 25 194 L 25 195 L 24 195 Z M 24 194"/></clipPath><clipPath id="z"><path d="M 132.601562 248.765625 L -0.207031 182.332031 L 41.730469 98.488281 L 174.542969 164.921875 Z M 132.601562 248.765625"/></clipPath><clipPath id="A"><path d="M 132.648438 248.789062 L -0.164062 182.355469 L 41.777344 98.507812 L 174.589844 164.941406 Z M 132.648438 248.789062"/></clipPath><clipPath id="B"><path d="M 23 190 L 24 190 L 24 191 L 23 191 Z M 23 190"/></clipPath><clipPath id="C"><path d="M 132.601562 248.765625 L -0.207031 182.332031 L 41.730469 98.488281 L 174.542969 164.921875 Z M 132.601562 248.765625"/></clipPath><clipPath id="D"><path d="M 132.648438 248.789062 L -0.164062 182.355469 L 41.777344 98.507812 L 174.589844 164.941406 Z M 132.648438 248.789062"/></clipPath><clipPath id="E"><path d="M 23 192 L 24 192 L 24 193 L 23 193 Z M 23 192"/></clipPath><clipPath id="F"><path d="M 132.601562 248.765625 L -0.207031 182.332031 L 41.730469 98.488281 L 174.542969 164.921875 Z M 132.601562 248.765625"/></clipPath><clipPath id="G"><path d="M 132.648438 248.789062 L -0.164062 182.355469 L 41.777344 98.507812 L 174.589844 164.941406 Z M 132.648438 248.789062"/></clipPath><clipPath id="H"><path d="M 22 188 L 24 188 L 24 192 L 22 192 Z M 22 188"/></clipPath><clipPath id="I"><path d="M 132.601562 248.765625 L -0.207031 182.332031 L 41.730469 98.488281 L 174.542969 164.921875 Z M 132.601562 248.765625"/></clipPath><clipPath id="J"><path d="M 132.648438 248.789062 L -0.164062 182.355469 L 41.777344 98.507812 L 174.589844 164.941406 Z M 132.648438 248.789062"/></clipPath><clipPath id="K"><path d="M 23 192 L 24 192 L 24 193 L 23 193 Z M 23 192"/></clipPath><clipPath id="L"><path d="M 132.601562 248.765625 L -0.207031 182.332031 L 41.730469 98.488281 L 174.542969 164.921875 Z M 132.601562 248.765625"/></clipPath><clipPath id="M"><path d="M 132.648438 248.789062 L -0.164062 182.355469 L 41.777344 98.507812 L 174.589844 164.941406 Z M 132.648438 248.789062"/></clipPath><clipPath id="N"><path d="M 23 191 L 24 191 L 24 193 L 23 193 Z M 23 191"/></clipPath><clipPath id="O"><path d="M 132.601562 248.765625 L -0.207031 182.332031 L 41.730469 98.488281 L 174.542969 164.921875 Z M 132.601562 248.765625"/></clipPath><clipPath id="P"><path d="M 132.648438 248.789062 L -0.164062 182.355469 L 41.777344 98.507812 L 174.589844 164.941406 Z M 132.648438 248.789062"/></clipPath><clipPath id="Q"><path d="M 23 191 L 25 191 L 25 195 L 23 195 Z M 23 191"/></clipPath><clipPath id="R"><path d="M 132.601562 248.765625 L -0.207031 182.332031 L 41.730469 98.488281 L 174.542969 164.921875 Z M 132.601562 248.765625"/></clipPath><clipPath id="S"><path d="M 132.648438 248.789062 L -0.164062 182.355469 L 41.777344 98.507812 L 174.589844 164.941406 Z M 132.648438 248.789062"/></clipPath><clipPath id="T"><path d="M 13 153 L 159 153 L 159 221 L 13 221 Z M 13 153"/></clipPath><clipPath id="U"><path d="M 132.601562 248.765625 L -0.207031 182.332031 L 41.730469 98.488281 L 174.542969 164.921875 Z M 132.601562 248.765625"/></clipPath><clipPath id="V"><path d="M 132.648438 248.789062 L -0.164062 182.355469 L 41.777344 98.507812 L 174.589844 164.941406 Z M 132.648438 248.789062"/></clipPath><clipPath id="W"><path d="M 23 191 L 24 191 L 24 192 L 23 192 Z M 23 191"/></clipPath><clipPath id="X"><path d="M 132.601562 248.765625 L -0.207031 182.332031 L 41.730469 98.488281 L 174.542969 164.921875 Z M 132.601562 248.765625"/></clipPath><clipPath id="Y"><path d="M 132.648438 248.789062 L -0.164062 182.355469 L 41.777344 98.507812 L 174.589844 164.941406 Z M 132.648438 248.789062"/></clipPath><clipPath id="Z"><path d="M 23 190 L 24 190 L 24 192 L 23 192 Z M 23 190"/></clipPath><clipPath id="aa"><path d="M 132.601562 248.765625 L -0.207031 182.332031 L 41.730469 98.488281 L 174.542969 164.921875 Z M 132.601562 248.765625"/></clipPath><clipPath id="ab"><path d="M 132.648438 248.789062 L -0.164062 182.355469 L 41.777344 98.507812 L 174.589844 164.941406 Z M 132.648438 248.789062"/></clipPath><clipPath id="ac"><path d="M 22 188 L 24 188 L 24 190 L 22 190 Z M 22 188"/></clipPath><clipPath id="ad"><path d="M 132.601562 248.765625 L -0.207031 182.332031 L 41.730469 98.488281 L 174.542969 164.921875 Z M 132.601562 248.765625"/></clipPath><clipPath id="ae"><path d="M 132.648438 248.789062 L -0.164062 182.355469 L 41.777344 98.507812 L 174.589844 164.941406 Z M 132.648438 248.789062"/></clipPath><clipPath id="af"><path d="M 23 192 L 24 192 L 24 194 L 23 194 Z M 23 192"/></clipPath><clipPath id="ag"><path d="M 132.601562 248.765625 L -0.207031 182.332031 L 41.730469 98.488281 L 174.542969 164.921875 Z M 132.601562 248.765625"/></clipPath><clipPath id="ah"><path d="M 132.648438 248.789062 L -0.164062 182.355469 L 41.777344 98.507812 L 174.589844 164.941406 Z M 132.648438 248.789062"/></clipPath><clipPath id="ai"><path d="M 23 190 L 24 190 L 24 191 L 23 191 Z M 23 190"/></clipPath><clipPath id="aj"><path d="M 132.601562 248.765625 L -0.207031 182.332031 L 41.730469 98.488281 L 174.542969 164.921875 Z M 132.601562 248.765625"/></clipPath><clipPath id="ak"><path d="M 132.648438 248.789062 L -0.164062 182.355469 L 41.777344 98.507812 L 174.589844 164.941406 Z M 132.648438 248.789062"/></clipPath></defs><g fill="#FFF"><g><g><path d="M 1.890625 0 L 1.890625 -32.828125 L 9.484375 -32.828125 L 11.6875 -19.90625 L 12.765625 -3.984375 L 13.65625 -3.984375 L 14.640625 -19.90625 L 16.90625 -32.828125 L 24.453125 -32.828125 L 24.453125 0 L 20.015625 0 L 20.015625 -9.921875 L 20.796875 -28.890625 L 19.859375 -28.890625 L 17.8125 -9.5625 L 15.875 -0.078125 L 10.46875 -0.078125 L 8.578125 -9.5625 L 6.53125 -28.890625 L 5.578125 -28.890625 L 6.359375 -9.8125 L 6.359375 0 Z M 1.890625 0" transform="translate(170.597 203.252)"/></g></g></g><g fill="#FFF"><g><g><path d="M 9.03125 0.328125 C 6.5625 0.328125 4.785156 -0.191406 3.703125 -1.234375 C 2.628906 -2.273438 2.066406 -4.007812 2.015625 -6.4375 C 1.878906 -13.082031 1.878906 -19.742188 2.015625 -26.421875 C 2.066406 -28.828125 2.628906 -30.550781 3.703125 -31.59375 C 4.785156 -32.632812 6.5625 -33.15625 9.03125 -33.15625 C 11.488281 -33.15625 13.25 -32.632812 14.3125 -31.59375 C 15.382812 -30.550781 15.960938 -28.828125 16.046875 -26.421875 C 16.210938 -19.722656 16.210938 -13.0625 16.046875 -6.4375 C 15.960938 -4.007812 15.382812 -2.273438 14.3125 -1.234375 C 13.25 -0.191406 11.488281 0.328125 9.03125 0.328125 Z M 9.03125 -3.328125 C 10.695312 -3.328125 11.554688 -4.101562 11.609375 -5.65625 C 11.691406 -7.925781 11.738281 -10.289062 11.75 -12.75 C 11.769531 -15.21875 11.765625 -17.679688 11.734375 -20.140625 C 11.703125 -22.609375 11.660156 -24.960938 11.609375 -27.203125 C 11.554688 -28.734375 10.695312 -29.5 9.03125 -29.5 C 7.332031 -29.5 6.46875 -28.734375 6.4375 -27.203125 C 6.351562 -24.960938 6.296875 -22.609375 6.265625 -20.140625 C 6.242188 -17.679688 6.242188 -15.21875 6.265625 -12.75 C 6.296875 -10.289062 6.351562 -7.925781 6.4375 -5.65625 C 6.46875 -4.101562 7.332031 -3.328125 9.03125 -3.328125 Z M 9.03125 -3.328125" transform="translate(199.022 203.252)"/></g></g></g><g fill="#FFF"><g><g><path d="M 5.171875 0 L 0.9375 -32.828125 L 5.546875 -32.828125 L 7.671875 -15.46875 L 8.375 -3.9375 L 9.265625 -3.9375 L 9.96875 -15.46875 L 12.109375 -32.828125 L 16.703125 -32.828125 L 12.515625 0 Z M 5.171875 0" transform="translate(219.161 203.252)"/></g></g></g><g fill="#FFF"><g><g><path d="M 1.890625 0 L 1.890625 -32.828125 L 6.359375 -32.828125 L 6.359375 0 Z M 1.890625 0" transform="translate(238.89 203.252)"/></g></g></g><g fill="#FFF"><g><g><path d="M 1.890625 0 L 1.890625 -32.828125 L 13.625 -32.828125 L 13.625 -28.890625 L 6.359375 -28.890625 L 6.359375 -18.59375 L 13.21875 -18.59375 L 13.21875 -14.640625 L 6.359375 -14.640625 L 6.359375 -3.9375 L 13.625 -3.9375 L 13.625 0 Z M 1.890625 0" transform="translate(249.227 203.252)"/></g></g></g><g fill="#FFF"><g><g><path d="M 5.171875 0 L 0.9375 -32.828125 L 5.546875 -32.828125 L 7.671875 -15.46875 L 8.375 -3.9375 L 9.265625 -3.9375 L 9.96875 -15.46875 L 12.109375 -32.828125 L 16.703125 -32.828125 L 12.515625 0 Z M 5.171875 0" transform="translate(266.044 203.252)"/></g></g></g><g fill="#FFF"><g><g><path d="M 1.890625 0 L 1.890625 -32.828125 L 13.625 -32.828125 L 13.625 -28.890625 L 6.359375 -28.890625 L 6.359375 -18.59375 L 13.21875 -18.59375 L 13.21875 -14.640625 L 6.359375 -14.640625 L 6.359375 -3.9375 L 13.625 -3.9375 L 13.625 0 Z M 1.890625 0" transform="translate(285.773 203.252)"/></g></g></g><g fill="#FFF"><g><g><path d="M 1.890625 0 L 1.890625 -32.828125 L 8.375 -32.828125 C 10.800781 -32.828125 12.566406 -32.304688 13.671875 -31.265625 C 14.785156 -30.222656 15.382812 -28.523438 15.46875 -26.171875 C 15.519531 -24.671875 15.546875 -23.34375 15.546875 -22.1875 C 15.546875 -21.039062 15.519531 -19.800781 15.46875 -18.46875 C 15.363281 -15.40625 14.351562 -13.4375 12.4375 -12.5625 L 16 0 L 11.28125 0 L 8.25 -11.8125 L 6.359375 -11.8125 L 6.359375 0 Z M 6.359375 -15.75 L 8.328125 -15.75 C 10.054688 -15.75 10.957031 -16.570312 11.03125 -18.21875 C 11.175781 -20.957031 11.175781 -23.679688 11.03125 -26.390625 C 10.957031 -28.054688 10.070312 -28.890625 8.375 -28.890625 L 6.359375 -28.890625 Z M 6.359375 -15.75" transform="translate(302.59 203.252)"/></g></g></g><g fill="#FFF"><g><g><path d="M 9.03125 0.328125 C 6.5625 0.328125 4.804688 -0.195312 3.765625 -1.25 C 2.734375 -2.300781 2.160156 -4.046875 2.046875 -6.484375 C 2.023438 -7.441406 2.019531 -8.367188 2.03125 -9.265625 C 2.039062 -10.171875 2.085938 -11.117188 2.171875 -12.109375 L 6.359375 -12.109375 C 6.304688 -10.984375 6.269531 -9.875 6.25 -8.78125 C 6.238281 -7.6875 6.273438 -6.660156 6.359375 -5.703125 C 6.410156 -4.878906 6.648438 -4.273438 7.078125 -3.890625 C 7.503906 -3.515625 8.15625 -3.328125 9.03125 -3.328125 C 9.875 -3.328125 10.492188 -3.515625 10.890625 -3.890625 C 11.285156 -4.273438 11.515625 -4.878906 11.578125 -5.703125 C 11.648438 -6.628906 11.679688 -7.46875 11.671875 -8.21875 C 11.660156 -8.976562 11.628906 -9.863281 11.578125 -10.875 C 11.515625 -11.664062 11.347656 -12.347656 11.078125 -12.921875 C 10.804688 -13.492188 10.3125 -13.878906 9.59375 -14.078125 L 6.859375 -14.765625 C 4.992188 -15.234375 3.71875 -16.039062 3.03125 -17.1875 C 2.351562 -18.34375 1.984375 -19.90625 1.921875 -21.875 C 1.921875 -22.613281 1.921875 -23.363281 1.921875 -24.125 C 1.921875 -24.894531 1.9375 -25.648438 1.96875 -26.390625 C 2.050781 -28.816406 2.617188 -30.550781 3.671875 -31.59375 C 4.722656 -32.632812 6.507812 -33.15625 9.03125 -33.15625 C 11.382812 -33.15625 13.09375 -32.632812 14.15625 -31.59375 C 15.21875 -30.550781 15.789062 -28.816406 15.875 -26.390625 C 15.90625 -25.703125 15.910156 -24.867188 15.890625 -23.890625 C 15.878906 -22.921875 15.863281 -21.945312 15.84375 -20.96875 L 11.578125 -20.96875 C 11.597656 -22.007812 11.613281 -23.039062 11.625 -24.0625 C 11.644531 -25.09375 11.628906 -26.125 11.578125 -27.15625 C 11.515625 -28.71875 10.648438 -29.5 8.984375 -29.5 C 8.140625 -29.5 7.507812 -29.304688 7.09375 -28.921875 C 6.6875 -28.546875 6.457031 -27.957031 6.40625 -27.15625 C 6.320312 -26.28125 6.285156 -25.398438 6.296875 -24.515625 C 6.304688 -23.628906 6.34375 -22.75 6.40625 -21.875 C 6.457031 -20.96875 6.625 -20.253906 6.90625 -19.734375 C 7.195312 -19.210938 7.726562 -18.859375 8.5 -18.671875 L 10.953125 -18.09375 C 12.898438 -17.625 14.210938 -16.796875 14.890625 -15.609375 C 15.578125 -14.421875 15.960938 -12.84375 16.046875 -10.875 C 16.066406 -10 16.070312 -9.242188 16.0625 -8.609375 C 16.050781 -7.984375 16.03125 -7.273438 16 -6.484375 C 15.914062 -4.046875 15.335938 -2.300781 14.265625 -1.25 C 13.203125 -0.195312 11.457031 0.328125 9.03125 0.328125 Z M 9.03125 0.328125" transform="translate(321.662 203.252)"/></g></g></g><g fill="#FFF"><g><g><path d="M 1.890625 0 L 1.890625 -32.828125 L 13.625 -32.828125 L 13.625 -28.890625 L 6.359375 -28.890625 L 6.359375 -18.59375 L 13.21875 -18.59375 L 13.21875 -14.640625 L 6.359375 -14.640625 L 6.359375 -3.9375 L 13.625 -3.9375 L 13.625 0 Z M 1.890625 0" transform="translate(341.72 203.252)"/></g></g></g><g clip-path="url(#a)"><g clip-path="url(#b)"><g clip-path="url(#c)"><path fill="#FFF" d="M 91.257812 205.308594 C 91.589844 205.820312 91.945312 206.316406 92.316406 206.792969 C 85.054688 193.4375 92.257812 174.414062 109.09375 163.441406 C 125.933594 152.464844 146.269531 153.535156 155.589844 165.550781 C 155.300781 165.023438 154.992188 164.496094 154.65625 163.984375 C 145.898438 150.585938 124.609375 148.976562 107.101562 160.386719 C 89.59375 171.800781 82.5 191.910156 91.257812 205.308594"/></g></g></g><g clip-path="url(#d)"><g clip-path="url(#e)"><g clip-path="url(#f)"><path fill="#FFF" d="M 23.027344 189.363281 C 23.035156 189.390625 23.039062 189.425781 23.050781 189.453125 C 23.039062 189.425781 23.035156 189.390625 23.027344 189.363281"/></g></g></g><g clip-path="url(#g)"><g clip-path="url(#h)"><g clip-path="url(#i)"><path fill="#FFF" d="M 23.144531 189.855469 C 23.164062 189.921875 23.179688 189.992188 23.195312 190.058594 C 23.179688 189.992188 23.164062 189.921875 23.144531 189.855469"/></g></g></g><g clip-path="url(#j)"><g clip-path="url(#k)"><g clip-path="url(#l)"><path fill="#FFF" d="M 23.023438 189.34375 C 22.988281 189.203125 22.953125 189.066406 22.917969 188.929688 L 22.90625 188.878906 C 22.90625 188.882812 22.910156 188.886719 22.910156 188.890625 C 22.949219 189.046875 22.988281 189.203125 23.027344 189.363281 C 23.023438 189.355469 23.023438 189.351562 23.023438 189.34375"/></g></g></g><g clip-path="url(#m)"><g clip-path="url(#n)"><g clip-path="url(#o)"><path fill="#FFF" d="M 23.195312 190.058594 C 23.222656 190.164062 23.246094 190.269531 23.273438 190.378906 C 23.246094 190.269531 23.21875 190.164062 23.195312 190.058594"/></g></g></g><g clip-path="url(#p)"><g clip-path="url(#q)"><g clip-path="url(#r)"><path fill="#FFF" d="M 23.050781 189.453125 C 23.082031 189.585938 23.113281 189.71875 23.144531 189.855469 C 23.113281 189.71875 23.082031 189.585938 23.050781 189.453125"/></g></g></g><g clip-path="url(#s)"><g clip-path="url(#t)"><g clip-path="url(#u)"><path fill="#FFF" d="M 24.257812 194.546875 L 24.261719 194.542969 L 24.273438 194.539062 C 24.277344 194.539062 24.28125 194.539062 24.285156 194.539062 L 24.238281 194.371094 C 24.230469 194.378906 24.226562 194.386719 24.222656 194.394531 C 24.234375 194.445312 24.246094 194.492188 24.257812 194.546875"/></g></g></g><g clip-path="url(#v)"><g clip-path="url(#w)"><g clip-path="url(#x)"><path fill="#FFF" d="M 22.898438 188.84375 C 22.902344 188.851562 22.902344 188.859375 22.902344 188.867188 C 22.792969 188.402344 22.679688 187.929688 22.898438 188.84375"/></g></g></g><g clip-path="url(#y)"><g clip-path="url(#z)"><g clip-path="url(#A)"><path fill="#FFF" d="M 24.367188 194.546875 C 24.378906 194.539062 24.390625 194.53125 24.40625 194.519531 C 24.414062 194.511719 24.449219 194.492188 24.429688 194.5 C 24.417969 194.503906 24.398438 194.511719 24.378906 194.515625 C 24.359375 194.519531 24.335938 194.527344 24.3125 194.53125 C 24.304688 194.535156 24.292969 194.535156 24.285156 194.539062 L 24.296875 194.59375 C 24.296875 194.59375 24.320312 194.578125 24.367188 194.546875"/></g></g></g><g clip-path="url(#B)"><g clip-path="url(#C)"><g clip-path="url(#D)"><path fill="#FFF" d="M 23.273438 190.378906 C 23.289062 190.453125 23.308594 190.523438 23.324219 190.597656 C 23.308594 190.523438 23.289062 190.453125 23.273438 190.378906"/></g></g></g><g clip-path="url(#E)"><g clip-path="url(#F)"><g clip-path="url(#G)"><path fill="#FFF" d="M 23.839844 192.867188 C 23.8125 192.742188 23.785156 192.617188 23.757812 192.496094 C 23.785156 192.617188 23.8125 192.742188 23.839844 192.867188"/></g></g></g><g clip-path="url(#H)"><g clip-path="url(#I)"><g clip-path="url(#J)"><path fill="#FFF" d="M 22.898438 188.84375 C 22.898438 188.84375 22.898438 188.84375 22.898438 188.839844 L 22.894531 188.832031 C 23.179688 190.019531 23.394531 190.929688 23.5625 191.625 C 23.558594 191.621094 23.558594 191.617188 23.558594 191.617188 C 23.21875 190.179688 23.011719 189.324219 22.898438 188.84375"/></g></g></g><g clip-path="url(#K)"><g clip-path="url(#L)"><g clip-path="url(#M)"><path fill="#FFF" d="M 23.714844 192.296875 C 23.730469 192.363281 23.742188 192.429688 23.757812 192.496094 C 23.746094 192.445312 23.734375 192.390625 23.722656 192.339844 C 23.722656 192.324219 23.714844 192.3125 23.714844 192.296875"/></g></g></g><g clip-path="url(#N)"><g clip-path="url(#O)"><g clip-path="url(#P)"><path fill="#FFF" d="M 23.5625 191.625 C 23.613281 191.847656 23.664062 192.070312 23.714844 192.296875 C 23.671875 192.113281 23.632812 191.925781 23.589844 191.746094 C 23.582031 191.707031 23.570312 191.664062 23.5625 191.625"/></g></g></g><g clip-path="url(#Q)"><g clip-path="url(#R)"><g clip-path="url(#S)"><path fill="#FFF" d="M 23.921875 193.140625 C 23.800781 192.625 23.6875 192.160156 23.589844 191.738281 C 23.589844 191.742188 23.589844 191.746094 23.589844 191.746094 C 23.746094 192.402344 23.851562 192.847656 23.921875 193.140625 L 23.914062 193.152344 C 23.914062 193.15625 23.910156 193.164062 23.90625 193.167969 L 23.898438 193.144531 L 23.863281 192.980469 C 23.855469 192.941406 23.847656 192.902344 23.839844 192.867188 C 23.859375 192.964844 23.882812 193.066406 23.90625 193.167969 C 23.902344 193.175781 23.898438 193.179688 23.90625 193.183594 L 23.90625 193.1875 L 23.910156 193.191406 C 23.910156 193.1875 23.910156 193.191406 23.910156 193.191406 C 23.917969 193.21875 23.921875 193.25 23.929688 193.277344 C 24.007812 193.652344 24.089844 194.035156 24.171875 194.429688 L 24.183594 194.488281 L 24.1875 194.484375 L 24.1875 194.476562 C 24.191406 194.464844 24.199219 194.453125 24.203125 194.441406 C 24.210938 194.429688 24.210938 194.410156 24.222656 194.394531 C 24.140625 194.042969 24.058594 193.714844 23.984375 193.402344 C 23.964844 193.320312 23.945312 193.226562 23.921875 193.140625"/></g></g></g><g clip-path="url(#T)"><g clip-path="url(#U)"><g clip-path="url(#V)"><path fill="#FFF" d="M 22.214844 155.089844 C 22.523438 155.101562 22.933594 155.117188 23.34375 155.132812 C 23.753906 155.148438 24.152344 155.183594 24.457031 155.203125 C 24.761719 155.226562 24.960938 155.242188 24.960938 155.242188 L 25.175781 161.066406 C 25.175781 161.066406 24.996094 161.058594 24.722656 161.046875 C 24.449219 161.039062 24.089844 161.015625 23.722656 161.011719 C 23.355469 161.007812 22.988281 161.003906 22.714844 160.996094 C 22.4375 160.992188 22.25 161 22.25 161 L 21.695312 155.074219 C 21.695312 155.074219 21.90625 155.074219 22.214844 155.089844 Z M 28.855469 155.6875 C 29.148438 155.726562 29.539062 155.789062 29.925781 155.855469 C 30.316406 155.925781 30.703125 155.992188 30.992188 156.042969 C 31.136719 156.070312 31.257812 156.089844 31.34375 156.105469 C 31.429688 156.125 31.476562 156.132812 31.476562 156.132812 L 31.066406 161.707031 C 31.066406 161.707031 31.019531 161.699219 30.945312 161.683594 C 30.867188 161.675781 30.757812 161.65625 30.628906 161.636719 C 30.363281 161.597656 30.011719 161.546875 29.660156 161.496094 C 29.308594 161.445312 28.957031 161.398438 28.6875 161.371094 C 28.421875 161.339844 28.246094 161.320312 28.246094 161.320312 L 28.363281 155.617188 C 28.363281 155.617188 28.5625 155.644531 28.855469 155.6875 Z M 35.214844 156.996094 C 35.496094 157.066406 35.871094 157.164062 36.242188 157.277344 C 36.984375 157.496094 37.726562 157.71875 37.726562 157.71875 L 36.761719 162.972656 C 36.761719 162.972656 36.085938 162.792969 35.40625 162.613281 C 35.066406 162.519531 34.722656 162.445312 34.464844 162.386719 C 34.207031 162.328125 34.035156 162.289062 34.035156 162.289062 L 34.742188 156.875 C 34.742188 156.875 34.929688 156.921875 35.214844 156.996094 Z M 37.59375 164.417969 C 37.988281 164.539062 38.417969 164.667969 38.875 164.808594 C 39.324219 164.949219 39.796875 165.125 40.285156 165.292969 C 41.261719 165.613281 42.277344 166.046875 43.292969 166.449219 C 43.796875 166.667969 44.292969 166.898438 44.78125 167.121094 C 45.269531 167.34375 45.75 167.558594 46.199219 167.800781 C 47.105469 168.269531 47.957031 168.6875 48.652344 169.105469 C 49.351562 169.515625 49.9375 169.84375 50.335938 170.09375 C 50.730469 170.347656 50.957031 170.496094 50.957031 170.496094 C 51.390625 170.777344 51.667969 171.242188 51.761719 171.761719 C 51.855469 172.277344 51.761719 172.847656 51.472656 173.359375 L 44.851562 185.023438 C 44.273438 186.027344 43.273438 186.664062 42.636719 186.421875 C 42.636719 186.421875 42.46875 186.359375 42.179688 186.25 C 41.886719 186.140625 41.457031 186.019531 40.957031 185.851562 C 40.457031 185.675781 39.851562 185.535156 39.222656 185.363281 C 38.910156 185.269531 38.578125 185.203125 38.242188 185.132812 C 37.90625 185.066406 37.570312 184.984375 37.230469 184.917969 C 36.542969 184.816406 35.875 184.675781 35.230469 184.617188 C 34.910156 184.582031 34.605469 184.535156 34.3125 184.511719 C 34.023438 184.488281 33.746094 184.46875 33.492188 184.449219 C 32.984375 184.398438 32.558594 184.40625 32.261719 184.390625 C 31.96875 184.378906 31.800781 184.375 31.800781 184.375 C 31.476562 184.375 31.21875 184.101562 31.058594 183.640625 C 30.898438 183.183594 30.832031 182.546875 30.910156 181.847656 L 32.726562 165.820312 C 32.804688 165.121094 33.082031 164.53125 33.480469 164.144531 C 33.875 163.761719 34.390625 163.582031 34.914062 163.703125 C 34.914062 163.703125 35.183594 163.769531 35.65625 163.890625 C 36.125 164.015625 36.800781 164.167969 37.59375 164.417969 Z M 42.28125 159.347656 C 42.636719 159.488281 42.988281 159.628906 43.25 159.746094 C 43.511719 159.863281 43.6875 159.941406 43.6875 159.941406 L 42.234375 164.828125 C 42.234375 164.828125 42.074219 164.761719 41.832031 164.664062 C 41.589844 164.5625 41.265625 164.445312 40.9375 164.328125 C 40.28125 164.09375 39.625 163.859375 39.625 163.859375 L 40.851562 158.789062 C 40.851562 158.789062 41.566406 159.066406 42.28125 159.347656 Z M 47.054688 161.539062 C 47.304688 161.667969 47.644531 161.832031 47.972656 162.011719 C 48.628906 162.382812 49.285156 162.75 49.285156 162.75 L 47.414062 167.234375 C 47.414062 167.234375 46.804688 166.914062 46.195312 166.597656 C 45.890625 166.4375 45.574219 166.300781 45.34375 166.1875 C 45.109375 166.082031 44.953125 166.007812 44.953125 166.007812 L 46.628906 161.324219 C 46.628906 161.324219 46.800781 161.410156 47.054688 161.539062 Z M 52.40625 164.660156 C 52.519531 164.738281 52.660156 164.820312 52.800781 164.917969 C 52.945312 165.015625 53.097656 165.125 53.246094 165.230469 C 53.847656 165.65625 54.449219 166.078125 54.449219 166.078125 L 52.242188 170.128906 C 52.242188 170.128906 51.675781 169.757812 51.113281 169.386719 C 50.972656 169.292969 50.828125 169.199219 50.695312 169.113281 C 50.5625 169.027344 50.433594 168.953125 50.324219 168.890625 C 50.105469 168.757812 49.957031 168.671875 49.957031 168.671875 L 52.015625 164.414062 C 52.015625 164.414062 52.167969 164.511719 52.40625 164.660156 Z M 44.480469 188.226562 C 44.480469 188.226562 44.582031 188.265625 44.734375 188.328125 C 44.808594 188.363281 44.898438 188.394531 44.992188 188.4375 C 45.085938 188.484375 45.183594 188.53125 45.285156 188.582031 C 45.679688 188.773438 46.082031 188.964844 46.082031 188.964844 L 43.617188 192.574219 C 43.617188 192.574219 43.246094 192.433594 42.875 192.296875 C 42.78125 192.261719 42.691406 192.226562 42.605469 192.195312 C 42.515625 192.164062 42.433594 192.140625 42.363281 192.117188 C 42.222656 192.074219 42.128906 192.046875 42.128906 192.046875 Z M 45.496094 185.335938 L 52.265625 173.90625 C 52.558594 173.410156 52.992188 173.074219 53.457031 172.945312 C 53.921875 172.816406 54.425781 172.882812 54.828125 173.199219 C 54.828125 173.199219 55.648438 173.859375 56.878906 174.847656 C 57.46875 175.367188 58.148438 175.980469 58.871094 176.628906 C 59.054688 176.792969 59.230469 176.964844 59.40625 177.140625 C 59.585938 177.316406 59.765625 177.496094 59.945312 177.675781 C 60.304688 178.03125 60.671875 178.398438 61.035156 178.761719 C 61.21875 178.9375 61.390625 179.132812 61.5625 179.320312 C 61.734375 179.507812 61.90625 179.695312 62.074219 179.882812 C 62.410156 180.253906 62.742188 180.621094 63.0625 180.976562 C 63.386719 181.324219 63.664062 181.691406 63.945312 182.023438 C 64.21875 182.359375 64.476562 182.679688 64.71875 182.972656 C 64.953125 183.265625 65.171875 183.535156 65.367188 183.773438 C 65.546875 184.019531 65.707031 184.230469 65.835938 184.410156 C 66.09375 184.761719 66.242188 184.964844 66.242188 184.964844 C 66.8125 185.746094 66.699219 186.855469 65.992188 187.445312 L 57.914062 194.253906 C 57.207031 194.84375 56.171875 194.914062 55.605469 194.414062 C 55.605469 194.414062 55.460938 194.285156 55.203125 194.054688 C 55.078125 193.941406 54.921875 193.800781 54.746094 193.640625 C 54.558594 193.492188 54.351562 193.324219 54.121094 193.140625 C 53.894531 192.960938 53.652344 192.761719 53.390625 192.554688 C 53.128906 192.347656 52.867188 192.113281 52.570312 191.910156 C 52.277344 191.699219 51.976562 191.484375 51.671875 191.265625 C 51.519531 191.152344 51.363281 191.042969 51.210938 190.929688 C 51.058594 190.820312 50.90625 190.707031 50.742188 190.609375 C 50.425781 190.402344 50.109375 190.199219 49.792969 190 C 49.640625 189.898438 49.484375 189.800781 49.332031 189.699219 C 49.183594 189.601562 49.03125 189.503906 48.878906 189.421875 C 48.273438 189.074219 47.707031 188.753906 47.226562 188.476562 C 46.242188 187.984375 45.585938 187.652344 45.585938 187.652344 C 45.269531 187.503906 45.097656 187.1875 45.082031 186.765625 C 45.066406 186.347656 45.203125 185.835938 45.496094 185.335938 Z M 56.933594 167.976562 C 56.933594 167.976562 57.074219 168.089844 57.289062 168.257812 C 57.394531 168.34375 57.519531 168.441406 57.648438 168.550781 C 57.777344 168.660156 57.910156 168.777344 58.046875 168.894531 C 58.589844 169.367188 59.128906 169.84375 59.128906 169.84375 L 56.667969 173.453125 C 56.667969 173.453125 56.152344 173.03125 55.636719 172.609375 C 55.507812 172.507812 55.378906 172.402344 55.257812 172.304688 C 55.136719 172.207031 55.019531 172.121094 54.917969 172.046875 C 54.714844 171.898438 54.582031 171.796875 54.582031 171.796875 Z M 61.351562 171.929688 C 61.351562 171.929688 61.476562 172.050781 61.664062 172.234375 C 61.851562 172.421875 62.109375 172.667969 62.351562 172.921875 C 62.824219 173.433594 63.300781 173.945312 63.300781 173.945312 L 60.664062 177.121094 C 60.664062 177.121094 60.207031 176.660156 59.75 176.199219 C 59.515625 175.972656 59.269531 175.753906 59.089844 175.585938 C 58.910156 175.421875 58.789062 175.3125 58.789062 175.3125 Z M 65.257812 176.171875 C 65.257812 176.171875 65.695312 176.699219 66.132812 177.226562 C 66.347656 177.492188 66.570312 177.753906 66.722656 177.957031 C 66.871094 178.160156 66.976562 178.292969 66.976562 178.292969 L 64.246094 181.058594 C 64.246094 181.058594 64.144531 180.933594 63.996094 180.75 C 63.847656 180.5625 63.628906 180.328125 63.417969 180.089844 C 62.992188 179.609375 62.566406 179.128906 62.566406 179.128906 Z M 68.691406 180.617188 C 68.691406 180.617188 68.714844 180.648438 68.757812 180.710938 C 68.796875 180.773438 68.855469 180.855469 68.921875 180.960938 C 69.0625 181.167969 69.246094 181.445312 69.429688 181.722656 C 69.796875 182.273438 70.160156 182.828125 70.160156 182.828125 L 67.40625 185.207031 L 65.941406 183.175781 Z M 68.738281 188.585938 C 68.738281 188.585938 68.890625 188.816406 69.121094 189.167969 C 69.34375 189.519531 69.621094 190 69.90625 190.476562 C 70.464844 191.425781 71.023438 192.375 71.023438 192.375 C 71.023438 192.375 71.195312 192.683594 71.453125 193.152344 C 71.703125 193.625 72.074219 194.226562 72.433594 194.847656 C 72.8125 195.445312 73.183594 196.058594 73.484375 196.496094 C 73.785156 196.941406 73.984375 197.234375 73.984375 197.234375 C 73.984375 197.234375 74.113281 197.417969 74.3125 197.695312 C 74.507812 197.96875 74.765625 198.34375 75.042969 198.699219 C 75.320312 199.0625 75.589844 199.425781 75.804688 199.6875 C 76.019531 199.953125 76.160156 200.128906 76.160156 200.128906 C 76.640625 200.730469 76.695312 201.597656 76.242188 202.097656 L 71.046875 207.769531 C 70.820312 208.015625 70.46875 208.121094 70.070312 208.097656 C 69.679688 208.066406 69.234375 207.910156 68.871094 207.605469 C 68.871094 207.605469 68.65625 207.429688 68.332031 207.164062 C 68.003906 206.902344 67.585938 206.535156 67.160156 206.167969 C 66.734375 205.804688 66.328125 205.425781 66.019531 205.140625 C 65.707031 204.855469 65.503906 204.667969 65.503906 204.667969 C 65.503906 204.667969 65.1875 204.359375 64.710938 203.898438 C 64.230469 203.441406 63.625 202.800781 63.011719 202.164062 C 62.414062 201.511719 61.808594 200.863281 61.382812 200.359375 C 60.953125 199.855469 60.664062 199.519531 60.664062 199.519531 C 60.664062 199.519531 60.039062 198.839844 59.417969 198.160156 C 59.105469 197.824219 58.804688 197.480469 58.566406 197.238281 C 58.324219 197 58.160156 196.835938 58.160156 196.835938 C 57.613281 196.300781 57.742188 195.394531 58.445312 194.8125 L 66.515625 188.191406 C 67.21875 187.605469 68.21875 187.785156 68.738281 188.585938 Z M 71.632812 185.222656 C 71.632812 185.222656 71.960938 185.78125 72.292969 186.339844 C 72.371094 186.480469 72.453125 186.621094 72.53125 186.753906 C 72.601562 186.882812 72.667969 187.011719 72.726562 187.117188 C 72.835938 187.332031 72.914062 187.472656 72.914062 187.472656 L 70.1875 189.503906 C 70.1875 189.503906 70.109375 189.371094 69.996094 189.171875 C 69.9375 189.074219 69.871094 188.957031 69.796875 188.832031 C 69.71875 188.710938 69.636719 188.582031 69.554688 188.453125 C 69.21875 187.933594 68.886719 187.417969 68.886719 187.417969 Z M 74.183594 189.902344 C 74.183594 189.902344 74.214844 189.957031 74.242188 190.011719 C 74.257812 190.039062 74.273438 190.070312 74.285156 190.089844 C 74.289062 190.105469 74.292969 190.117188 74.292969 190.117188 C 74.292969 190.117188 74.460938 190.492188 74.628906 190.871094 C 74.714844 191.0625 74.796875 191.257812 74.863281 191.394531 C 74.929688 191.535156 74.972656 191.628906 74.972656 191.628906 L 72.441406 193.511719 C 72.441406 193.511719 72.386719 193.414062 72.308594 193.273438 C 72.226562 193.128906 72.125 192.933594 72.023438 192.738281 C 71.816406 192.355469 71.609375 191.96875 71.609375 191.96875 C 71.609375 191.96875 71.605469 191.957031 71.597656 191.941406 C 71.585938 191.921875 71.570312 191.894531 71.554688 191.871094 C 71.527344 191.820312 71.496094 191.765625 71.496094 191.765625 Z M 75.863281 193.425781 C 75.863281 193.425781 75.914062 193.519531 75.984375 193.660156 C 76.054688 193.796875 76.15625 193.976562 76.257812 194.160156 C 76.460938 194.523438 76.660156 194.890625 76.660156 194.890625 L 76.753906 195.046875 L 74.574219 196.972656 L 74.464844 196.816406 C 74.464844 196.816406 74.222656 196.445312 73.984375 196.078125 C 73.867188 195.890625 73.742188 195.710938 73.660156 195.570312 C 73.574219 195.429688 73.515625 195.335938 73.515625 195.335938 Z M 77.785156 196.742188 C 77.785156 196.742188 77.847656 196.839844 77.941406 196.988281 C 78.039062 197.132812 78.167969 197.324219 78.296875 197.515625 C 78.425781 197.710938 78.554688 197.90625 78.652344 198.046875 C 78.753906 198.191406 78.824219 198.285156 78.824219 198.285156 L 76.988281 200.222656 C 76.988281 200.222656 76.910156 200.125 76.792969 199.984375 C 76.679688 199.839844 76.53125 199.648438 76.378906 199.453125 C 76.230469 199.261719 76.078125 199.066406 75.964844 198.925781 C 75.859375 198.777344 75.785156 198.679688 75.785156 198.679688 Z M 77.613281 202.332031 C 77.773438 202.34375 77.929688 202.394531 78.082031 202.472656 C 78.238281 202.546875 78.386719 202.65625 78.523438 202.796875 C 78.523438 202.796875 78.660156 202.941406 78.90625 203.195312 C 79.152344 203.445312 79.515625 203.800781 79.949219 204.222656 C 80.828125 205.058594 82.046875 206.132812 83.34375 207.132812 C 84.636719 208.136719 86.007812 209.058594 87.066406 209.710938 C 87.589844 210.046875 88.042969 210.296875 88.355469 210.484375 C 88.671875 210.667969 88.855469 210.765625 88.855469 210.765625 C 89.550781 211.167969 90.011719 211.777344 89.863281 212.171875 L 88.113281 216.691406 C 88.039062 216.890625 87.792969 217.015625 87.457031 217.0625 C 87.117188 217.113281 86.6875 217.074219 86.246094 216.9375 C 86.246094 216.9375 85.335938 216.660156 83.984375 216.171875 C 82.636719 215.683594 80.851562 214.957031 79.109375 214.109375 C 77.367188 213.269531 75.667969 212.3125 74.417969 211.539062 C 73.800781 211.148438 73.285156 210.820312 72.925781 210.582031 C 72.574219 210.34375 72.371094 210.203125 72.371094 210.203125 C 71.578125 209.679688 71.324219 208.8125 71.761719 208.324219 L 76.773438 202.660156 C 76.992188 202.414062 77.300781 202.304688 77.613281 202.332031 Z M 80.015625 199.894531 C 80.015625 199.894531 80.082031 199.992188 80.195312 200.125 C 80.304688 200.261719 80.453125 200.445312 80.601562 200.625 C 80.75 200.808594 80.898438 200.992188 81.015625 201.125 C 81.128906 201.257812 81.207031 201.347656 81.207031 201.347656 L 79.710938 203.253906 C 79.710938 203.253906 79.625 203.167969 79.496094 203.035156 C 79.363281 202.90625 79.195312 202.722656 79.027344 202.542969 C 78.859375 202.363281 78.691406 202.183594 78.566406 202.046875 C 78.4375 201.914062 78.359375 201.820312 78.359375 201.820312 Z M 82.566406 202.855469 C 82.566406 202.855469 82.898438 203.199219 83.226562 203.542969 C 83.570312 203.875 83.914062 204.210938 83.914062 204.210938 L 82.734375 206.042969 C 82.734375 206.042969 82.355469 205.71875 81.976562 205.398438 C 81.605469 205.0625 81.238281 204.730469 81.238281 204.730469 Z M 85.441406 205.597656 C 85.441406 205.597656 85.804688 205.921875 86.183594 206.226562 C 86.371094 206.378906 86.558594 206.539062 86.703125 206.652344 C 86.847656 206.765625 86.941406 206.839844 86.941406 206.839844 L 86.054688 208.558594 C 86.054688 208.558594 85.949219 208.488281 85.792969 208.382812 C 85.636719 208.277344 85.433594 208.125 85.226562 207.976562 C 84.816406 207.6875 84.417969 207.378906 84.417969 207.378906 Z M 88.882812 208.277344 C 89.039062 208.382812 89.238281 208.527344 89.445312 208.664062 C 89.652344 208.804688 89.863281 208.9375 90.015625 209.042969 C 90.171875 209.144531 90.277344 209.214844 90.277344 209.214844 L 89.644531 210.78125 C 89.644531 210.78125 89.53125 210.71875 89.367188 210.625 C 89.199219 210.527344 88.976562 210.402344 88.753906 210.273438 C 88.53125 210.148438 88.316406 210.011719 88.152344 209.914062 C 87.988281 209.8125 87.878906 209.746094 87.878906 209.746094 L 88.632812 208.101562 C 88.632812 208.101562 88.734375 208.171875 88.882812 208.277344 Z M 92.167969 212.449219 C 92.167969 212.449219 92.214844 212.472656 92.304688 212.515625 C 92.390625 212.558594 92.523438 212.617188 92.695312 212.6875 C 93.03125 212.839844 93.515625 213.054688 94.105469 213.292969 C 95.28125 213.773438 96.878906 214.367188 98.519531 214.867188 C 100.164062 215.367188 101.839844 215.785156 103.113281 216.054688 C 104.386719 216.320312 105.246094 216.46875 105.246094 216.46875 C 106.074219 216.617188 106.746094 216.851562 106.738281 217.027344 L 106.65625 219.023438 C 106.652344 219.195312 105.933594 219.382812 105.050781 219.414062 C 105.050781 219.414062 104.824219 219.421875 104.421875 219.429688 C 104.023438 219.441406 103.449219 219.449219 102.761719 219.445312 C 101.382812 219.441406 99.539062 219.375 97.691406 219.207031 C 95.84375 219.039062 93.992188 218.765625 92.609375 218.507812 C 91.914062 218.382812 91.339844 218.257812 90.9375 218.175781 C 90.734375 218.132812 90.578125 218.097656 90.46875 218.070312 C 90.363281 218.046875 90.304688 218.03125 90.304688 218.03125 C 89.414062 217.835938 88.8125 217.328125 88.957031 216.941406 L 90.585938 212.515625 C 90.730469 212.125 91.429688 212.109375 92.167969 212.449219 Z M 93 210.824219 C 93.449219 211.0625 93.898438 211.300781 93.898438 211.300781 L 93.476562 212.6875 C 93.476562 212.6875 93.003906 212.472656 92.53125 212.257812 C 92.066406 212.035156 91.597656 211.808594 91.597656 211.808594 L 92.117188 210.332031 C 92.117188 210.332031 92.558594 210.578125 93 210.824219 Z M 96.8125 212.6875 C 97.292969 212.890625 97.769531 213.09375 97.769531 213.09375 L 97.519531 214.273438 C 97.519531 214.273438 97.019531 214.097656 96.523438 213.921875 C 96.035156 213.734375 95.542969 213.550781 95.542969 213.550781 L 95.871094 212.265625 C 95.871094 212.265625 96.34375 212.476562 96.8125 212.6875 Z M 100.167969 214.003906 C 100.351562 214.070312 100.597656 214.160156 100.847656 214.242188 C 101.097656 214.324219 101.351562 214.40625 101.539062 214.46875 C 101.726562 214.527344 101.851562 214.566406 101.851562 214.566406 L 101.730469 215.523438 C 101.730469 215.523438 101.597656 215.492188 101.40625 215.441406 C 101.210938 215.390625 100.957031 215.320312 100.699219 215.25 C 100.441406 215.183594 100.1875 215.105469 99.996094 215.050781 C 99.804688 214.996094 99.675781 214.960938 99.675781 214.960938 L 99.855469 213.894531 C 99.855469 213.894531 99.980469 213.9375 100.167969 214.003906 Z M 106.089844 216.117188 L 106.074219 216.445312 C 106.074219 216.445312 105.542969 216.351562 105.011719 216.253906 C 104.75 216.203125 104.488281 216.148438 104.289062 216.109375 C 104.09375 216.070312 103.960938 216.042969 103.960938 216.042969 L 104.035156 215.207031 C 104.035156 215.207031 104.144531 215.238281 104.316406 215.285156 C 104.890625 215.582031 105.484375 215.863281 106.089844 216.117188 Z M 102.054688 205.121094 C 98.050781 203.671875 96.945312 199.207031 99.589844 195.140625 C 102.234375 191.078125 107.625 188.957031 111.628906 190.398438 C 115.632812 191.84375 116.738281 196.3125 114.09375 200.378906 C 111.449219 204.441406 106.0625 206.566406 102.054688 205.121094 Z M 102.5 181.542969 C 102.789062 177.300781 106.902344 173.226562 111.691406 172.445312 C 116.484375 171.667969 120.132812 174.472656 119.847656 178.714844 C 119.558594 182.960938 115.445312 187.03125 110.65625 187.8125 C 105.863281 188.59375 102.214844 185.785156 102.5 181.542969 Z M 126.019531 165.078125 C 130.3125 162.277344 135.53125 162.675781 137.675781 165.957031 C 139.824219 169.242188 138.085938 174.171875 133.792969 176.96875 C 129.5 179.765625 124.28125 179.371094 122.136719 176.089844 C 119.988281 172.804688 121.726562 167.875 126.019531 165.078125 Z M 137.058594 176.929688 C 139.699219 172.867188 145.089844 170.742188 149.09375 172.1875 C 153.101562 173.632812 154.203125 178.101562 151.558594 182.164062 C 148.917969 186.230469 143.527344 188.351562 139.523438 186.90625 C 135.515625 185.460938 134.414062 180.996094 137.058594 176.929688 Z M 148.648438 195.765625 C 148.363281 200.007812 144.246094 204.082031 139.457031 204.859375 C 134.667969 205.640625 131.015625 202.835938 131.304688 198.589844 C 131.589844 194.347656 135.707031 190.277344 140.496094 189.496094 C 145.285156 188.714844 148.9375 191.523438 148.648438 195.765625 Z M 125.128906 212.230469 C 120.839844 215.027344 115.621094 214.632812 113.472656 211.351562 C 111.328125 208.066406 113.066406 203.136719 117.355469 200.335938 C 121.648438 197.539062 126.867188 197.933594 129.015625 201.21875 C 131.160156 204.503906 129.421875 209.433594 125.128906 212.230469 Z M 114.3125 218.394531 C 113.019531 218.640625 111.714844 218.835938 110.730469 218.960938 C 109.746094 219.085938 109.085938 219.144531 109.085938 219.144531 C 108.210938 219.238281 107.503906 219.15625 107.507812 218.988281 L 107.558594 217.117188 C 107.5625 217.035156 107.734375 216.984375 108.007812 216.964844 C 108.117188 216.957031 108.246094 216.953125 108.382812 216.957031 C 110.507812 217.628906 112.765625 218.058594 115.113281 218.238281 C 114.847656 218.292969 114.582031 218.34375 114.3125 218.394531 Z M 114.0625 218.804688 C 113.511719 218.941406 112.960938 219.066406 112.960938 219.066406 L 112.9375 218.714844 C 112.9375 218.714844 113.488281 218.621094 114.039062 218.511719 C 114.585938 218.402344 115.128906 218.285156 115.128906 218.285156 L 115.15625 218.519531 C 115.15625 218.519531 114.609375 218.667969 114.0625 218.804688 Z M 110.222656 219.628906 C 110.011719 219.664062 109.730469 219.714844 109.449219 219.761719 C 109.167969 219.808594 108.886719 219.855469 108.671875 219.886719 C 108.460938 219.921875 108.320312 219.941406 108.320312 219.941406 L 108.328125 219.347656 C 108.328125 219.347656 108.46875 219.332031 108.679688 219.3125 C 108.886719 219.289062 109.167969 219.257812 109.449219 219.226562 C 109.726562 219.195312 110.007812 219.160156 110.214844 219.132812 C 110.425781 219.105469 110.5625 219.085938 110.5625 219.085938 L 110.574219 219.5625 C 110.574219 219.5625 110.433594 219.589844 110.222656 219.628906 Z M 104.722656 220.371094 C 104.433594 220.394531 104.144531 220.417969 103.929688 220.433594 C 103.710938 220.449219 103.566406 220.460938 103.566406 220.460938 L 103.640625 219.625 C 103.640625 219.625 103.78125 219.625 103.996094 219.617188 C 104.210938 219.609375 104.492188 219.601562 104.777344 219.59375 C 105.34375 219.566406 105.910156 219.539062 105.910156 219.539062 L 105.875 220.257812 C 105.875 220.257812 105.296875 220.3125 104.722656 220.371094 Z M 100.703125 220.59375 C 100.484375 220.597656 100.191406 220.601562 99.898438 220.605469 C 99.605469 220.609375 99.3125 220.605469 99.089844 220.605469 C 98.867188 220.605469 98.722656 220.605469 98.722656 220.605469 L 98.902344 219.539062 C 98.902344 219.539062 99.046875 219.546875 99.261719 219.558594 C 99.476562 219.570312 99.761719 219.585938 100.050781 219.59375 C 100.335938 219.605469 100.621094 219.613281 100.835938 219.621094 C 101.050781 219.625 101.195312 219.628906 101.195312 219.628906 L 101.070312 220.582031 C 101.070312 220.582031 100.925781 220.585938 100.703125 220.59375 Z M 94.996094 220.445312 C 94.402344 220.394531 93.804688 220.34375 93.804688 220.34375 L 94.132812 219.0625 C 94.132812 219.0625 94.710938 219.136719 95.285156 219.214844 C 95.863281 219.277344 96.4375 219.34375 96.4375 219.34375 L 96.1875 220.523438 C 96.1875 220.523438 95.589844 220.484375 94.996094 220.445312 Z M 90.050781 219.855469 C 89.449219 219.746094 88.851562 219.644531 88.851562 219.644531 L 89.371094 218.164062 C 89.371094 218.164062 89.945312 218.292969 90.519531 218.417969 C 91.09375 218.535156 91.667969 218.648438 91.667969 218.648438 L 91.246094 220.039062 C 91.246094 220.039062 90.648438 219.945312 90.050781 219.855469 Z M 85.914062 219.007812 C 85.6875 218.949219 85.390625 218.875 85.089844 218.800781 C 84.792969 218.726562 84.496094 218.636719 84.269531 218.574219 C 84.046875 218.515625 83.898438 218.472656 83.898438 218.472656 L 84.648438 216.824219 C 84.648438 216.824219 84.792969 216.871094 85.003906 216.941406 C 85.21875 217.007812 85.496094 217.105469 85.78125 217.191406 C 86.066406 217.273438 86.351562 217.359375 86.566406 217.425781 C 86.777344 217.484375 86.921875 217.527344 86.921875 217.527344 L 86.285156 219.097656 C 86.285156 219.097656 86.136719 219.0625 85.914062 219.007812 Z M 81.351562 217.675781 C 81.351562 217.675781 81.203125 217.625 80.980469 217.550781 C 80.761719 217.476562 80.46875 217.363281 80.171875 217.257812 C 79.582031 217.046875 78.996094 216.8125 78.996094 216.8125 L 80.019531 215.03125 C 80.019531 215.03125 80.570312 215.28125 81.128906 215.503906 C 81.40625 215.621094 81.679688 215.738281 81.890625 215.820312 C 82.101562 215.902344 82.242188 215.953125 82.242188 215.953125 Z M 76.5 215.761719 C 76.5 215.761719 75.921875 215.492188 75.347656 215.226562 C 74.773438 214.941406 74.203125 214.65625 74.203125 214.65625 L 75.53125 212.785156 C 75.53125 212.785156 76.066406 213.078125 76.597656 213.371094 C 77.136719 213.648438 77.675781 213.925781 77.675781 213.925781 Z M 71.792969 213.351562 C 71.792969 213.351562 71.652344 213.269531 71.441406 213.152344 C 71.230469 213.035156 70.957031 212.867188 70.679688 212.699219 C 70.40625 212.53125 70.132812 212.363281 69.925781 212.238281 C 69.71875 212.113281 69.585938 212.019531 69.585938 212.019531 L 71.242188 210.09375 C 71.242188 210.09375 71.363281 210.1875 71.554688 210.3125 C 71.746094 210.441406 72.003906 210.609375 72.257812 210.78125 C 72.511719 210.953125 72.765625 211.121094 72.960938 211.242188 C 73.15625 211.363281 73.285156 211.445312 73.285156 211.445312 Z M 67.28125 210.476562 C 67.28125 210.476562 67.148438 210.386719 66.949219 210.246094 C 66.753906 210.101562 66.492188 209.910156 66.230469 209.714844 C 65.96875 209.523438 65.707031 209.328125 65.511719 209.183594 C 65.320312 209.035156 65.191406 208.933594 65.191406 208.933594 L 67.191406 207 C 67.191406 207 67.308594 207.097656 67.484375 207.246094 C 67.664062 207.390625 67.90625 207.585938 68.144531 207.78125 C 68.386719 207.972656 68.625 208.164062 68.808594 208.308594 C 68.992188 208.449219 69.113281 208.542969 69.113281 208.542969 Z M 63.023438 207.175781 L 62.824219 207.011719 C 62.824219 207.011719 62.382812 206.625 61.945312 206.238281 C 61.722656 206.039062 61.5 205.847656 61.339844 205.699219 C 61.179688 205.546875 61.070312 205.449219 61.070312 205.449219 L 63.417969 203.539062 C 63.417969 203.539062 63.515625 203.636719 63.664062 203.785156 C 63.8125 203.933594 64.015625 204.125 64.214844 204.320312 C 64.617188 204.703125 65.023438 205.085938 65.023438 205.085938 L 65.203125 205.25 Z M 59.027344 203.476562 C 59.027344 203.476562 58.921875 203.371094 58.765625 203.214844 C 58.609375 203.058594 58.410156 202.84375 58.203125 202.632812 C 57.800781 202.203125 57.390625 201.777344 57.390625 201.777344 C 57.390625 201.777344 57.378906 201.765625 57.363281 201.75 C 57.351562 201.734375 57.332031 201.71875 57.316406 201.703125 C 57.28125 201.671875 57.246094 201.640625 57.246094 201.640625 L 59.9375 199.777344 C 59.9375 199.777344 59.972656 199.8125 60.003906 199.847656 C 60.023438 199.863281 60.039062 199.882812 60.050781 199.898438 C 60.066406 199.914062 60.078125 199.925781 60.078125 199.925781 C 60.078125 199.925781 60.445312 200.347656 60.8125 200.765625 C 61 200.976562 61.179688 201.183594 61.320312 201.339844 C 61.464844 201.492188 61.558594 201.59375 61.558594 201.59375 Z M 55.753906 200.261719 C 55.753906 200.261719 55.667969 200.179688 55.539062 200.0625 C 55.472656 200 55.398438 199.933594 55.316406 199.855469 C 55.234375 199.785156 55.144531 199.710938 55.054688 199.636719 C 54.695312 199.34375 54.339844 199.042969 54.339844 199.042969 L 57.085938 196.847656 C 57.085938 196.847656 57.441406 197.1875 57.792969 197.527344 C 57.878906 197.613281 57.96875 197.695312 58.054688 197.777344 C 58.132812 197.859375 58.203125 197.9375 58.269531 198.007812 C 58.394531 198.140625 58.480469 198.230469 58.480469 198.230469 Z M 52.804688 197.816406 L 51.363281 196.738281 L 54.113281 194.179688 L 55.5625 195.433594 Z M 49.785156 195.695312 C 49.785156 195.695312 49.695312 195.636719 49.558594 195.546875 C 49.421875 195.457031 49.230469 195.351562 49.046875 195.242188 C 48.675781 195.027344 48.300781 194.808594 48.300781 194.808594 L 50.996094 191.851562 C 50.996094 191.851562 51.375 192.117188 51.757812 192.382812 C 51.949219 192.515625 52.144531 192.644531 52.285156 192.75 C 52.421875 192.859375 52.515625 192.933594 52.515625 192.933594 Z M 46.707031 193.949219 C 46.707031 193.949219 46.335938 193.761719 45.96875 193.570312 C 45.785156 193.480469 45.589844 193.40625 45.449219 193.339844 C 45.308594 193.28125 45.214844 193.238281 45.214844 193.238281 L 47.777344 189.855469 C 47.777344 189.855469 47.878906 189.90625 48.027344 189.988281 C 48.171875 190.074219 48.375 190.175781 48.570312 190.292969 C 48.957031 190.53125 49.34375 190.773438 49.34375 190.773438 Z M 40.539062 191.585938 C 40.539062 191.585938 40.171875 191.492188 39.804688 191.402344 C 39.714844 191.378906 39.621094 191.355469 39.539062 191.332031 C 39.453125 191.3125 39.371094 191.300781 39.300781 191.285156 C 39.160156 191.261719 39.070312 191.242188 39.070312 191.242188 L 41.125 186.980469 C 41.125 186.980469 41.226562 187.011719 41.378906 187.058594 C 41.457031 187.082031 41.546875 187.105469 41.644531 187.136719 C 41.738281 187.171875 41.839844 187.207031 41.9375 187.246094 C 42.34375 187.390625 42.75 187.535156 42.75 187.535156 Z M 36.785156 190.875 C 36.605469 190.847656 36.421875 190.84375 36.289062 190.828125 C 36.152344 190.820312 36.0625 190.8125 36.0625 190.8125 L 37.742188 186.128906 C 37.742188 186.128906 37.84375 186.148438 37.996094 186.179688 C 38.152344 186.210938 38.359375 186.242188 38.5625 186.292969 C 38.96875 186.390625 39.375 186.492188 39.375 186.492188 L 37.507812 190.976562 C 37.507812 190.976562 37.144531 190.925781 36.785156 190.875 Z M 34.316406 190.714844 C 34.1875 190.707031 34.007812 190.710938 33.832031 190.714844 C 33.484375 190.71875 33.132812 190.726562 33.132812 190.726562 L 34.359375 185.652344 C 34.359375 185.652344 34.765625 185.691406 35.175781 185.734375 C 35.378906 185.753906 35.585938 185.769531 35.738281 185.800781 C 35.886719 185.820312 35.992188 185.835938 35.992188 185.835938 L 34.539062 190.726562 C 34.539062 190.726562 34.449219 190.722656 34.316406 190.714844 Z M 30.972656 190.886719 C 30.804688 190.898438 30.636719 190.925781 30.507812 190.945312 C 30.382812 190.964844 30.300781 190.976562 30.300781 190.976562 L 31.003906 185.5625 C 31.003906 185.5625 31.105469 185.558594 31.257812 185.554688 C 31.40625 185.546875 31.609375 185.539062 31.808594 185.546875 C 32.214844 185.554688 32.617188 185.558594 32.617188 185.558594 L 31.652344 190.8125 C 31.652344 190.8125 31.3125 190.851562 30.972656 190.886719 Z M 28.828125 191.234375 C 28.792969 191.242188 28.742188 191.253906 28.683594 191.269531 C 28.5625 191.296875 28.402344 191.335938 28.242188 191.375 C 28.082031 191.40625 27.921875 191.445312 27.804688 191.480469 C 27.6875 191.515625 27.609375 191.535156 27.609375 191.535156 L 27.730469 185.832031 C 27.730469 185.832031 27.828125 185.816406 27.972656 185.796875 C 28.117188 185.773438 28.3125 185.75 28.507812 185.734375 C 28.707031 185.710938 28.902344 185.691406 29.050781 185.675781 C 29.125 185.667969 29.1875 185.660156 29.226562 185.65625 C 29.273438 185.652344 29.296875 185.652344 29.296875 185.652344 L 28.886719 191.222656 C 28.886719 191.222656 28.863281 191.226562 28.828125 191.234375 Z M 26.125 192.003906 C 26.019531 192.046875 25.867188 192.089844 25.730469 192.148438 C 25.59375 192.207031 25.457031 192.261719 25.351562 192.304688 C 25.25 192.34375 25.1875 192.375 25.1875 192.375 L 24.632812 186.453125 C 24.632812 186.453125 24.71875 186.425781 24.855469 186.394531 C 24.988281 186.363281 25.171875 186.316406 25.351562 186.273438 C 25.53125 186.222656 25.722656 186.191406 25.859375 186.160156 C 26 186.128906 26.09375 186.109375 26.09375 186.109375 L 26.308594 191.9375 C 26.308594 191.9375 26.234375 191.964844 26.125 192.003906 Z M 14.9375 155.453125 C 15.132812 155.425781 15.359375 155.394531 15.601562 155.359375 C 15.730469 155.339844 15.835938 155.332031 15.949219 155.316406 C 16.0625 155.304688 16.179688 155.292969 16.292969 155.277344 C 16.410156 155.265625 16.523438 155.253906 16.636719 155.242188 C 16.742188 155.234375 16.847656 155.226562 16.949219 155.21875 C 17.148438 155.199219 17.335938 155.1875 17.496094 155.171875 C 17.65625 155.160156 17.792969 155.148438 17.878906 155.148438 C 17.96875 155.144531 18.019531 155.140625 18.019531 155.140625 L 19 161.136719 C 19 161.136719 18.824219 161.144531 18.546875 161.175781 C 18.40625 161.1875 18.242188 161.207031 18.070312 161.222656 C 17.984375 161.230469 17.890625 161.242188 17.800781 161.25 C 17.703125 161.261719 17.605469 161.273438 17.507812 161.289062 C 17.308594 161.3125 17.125 161.335938 16.921875 161.367188 C 16.71875 161.398438 16.527344 161.429688 16.367188 161.453125 C 16.167969 161.492188 16 161.523438 15.886719 161.542969 C 15.878906 161.546875 15.871094 161.546875 15.867188 161.550781 L 15.859375 161.550781 C 15.855469 161.550781 15.851562 161.550781 15.851562 161.554688 C 15.847656 161.554688 15.84375 161.554688 15.84375 161.554688 L 16.175781 162.863281 C 16.175781 162.863281 16.183594 162.863281 16.1875 162.863281 C 16.203125 162.859375 16.1875 162.859375 16.285156 162.84375 C 16.429688 162.8125 16.679688 162.761719 16.894531 162.730469 C 17.011719 162.710938 17.140625 162.691406 17.28125 162.667969 C 17.410156 162.652344 17.546875 162.632812 17.699219 162.613281 C 17.84375 162.59375 18.007812 162.570312 18.164062 162.550781 C 18.324219 162.535156 18.488281 162.519531 18.660156 162.5 C 20.035156 162.359375 21.753906 162.273438 23.441406 162.292969 C 25.128906 162.3125 26.78125 162.414062 28.007812 162.546875 C 28.621094 162.609375 29.132812 162.660156 29.488281 162.714844 C 29.847656 162.761719 30.046875 162.792969 30.046875 162.792969 C 30.316406 162.828125 30.566406 162.9375 30.789062 163.101562 C 31.011719 163.265625 31.199219 163.492188 31.355469 163.753906 C 31.660156 164.277344 31.808594 164.953125 31.742188 165.65625 L 30.230469 181.847656 C 30.167969 182.554688 29.96875 183.195312 29.714844 183.667969 C 29.585938 183.90625 29.445312 184.09375 29.296875 184.234375 C 29.148438 184.378906 28.992188 184.464844 28.832031 184.476562 C 28.832031 184.476562 28.710938 184.488281 28.5 184.503906 C 28.292969 184.515625 27.992188 184.554688 27.632812 184.597656 C 26.917969 184.675781 25.976562 184.832031 25.074219 185.027344 C 24.175781 185.222656 23.316406 185.472656 22.777344 185.671875 C 22.710938 185.695312 22.648438 185.71875 22.585938 185.738281 C 22.527344 185.761719 22.484375 185.785156 22.4375 185.804688 C 22.390625 185.824219 22.351562 185.839844 22.3125 185.859375 C 22.285156 185.871094 22.261719 185.886719 22.238281 185.898438 C 22.179688 185.929688 22.210938 185.917969 22.207031 185.917969 C 22.132812 185.960938 22.09375 185.980469 22.09375 185.980469 L 22.429688 187.292969 C 22.429688 187.292969 22.472656 187.265625 22.546875 187.226562 C 22.539062 187.226562 22.527344 187.230469 22.515625 187.234375 C 22.535156 187.21875 22.5625 187.199219 22.589844 187.179688 C 22.617188 187.160156 22.679688 187.132812 22.726562 187.105469 L 22.800781 187.070312 C 22.828125 187.058594 22.859375 187.042969 22.890625 187.03125 C 22.949219 187.007812 23.003906 186.988281 23.050781 186.96875 C 23.140625 186.925781 23.214844 186.902344 23.214844 186.902344 L 24.199219 192.898438 C 24.199219 192.898438 24.1875 192.90625 24.167969 192.917969 C 24.144531 192.929688 24.125 192.949219 24.097656 192.96875 C 24.074219 192.988281 24.042969 193.015625 24.011719 193.039062 C 23.996094 193.050781 23.976562 193.066406 23.964844 193.078125 L 23.941406 193.117188 L 23.921875 193.140625 C 23.929688 193.167969 23.9375 193.199219 23.945312 193.230469 L 23.953125 193.230469 L 23.964844 193.226562 L 23.988281 193.222656 C 24.003906 193.21875 24.015625 193.214844 24.03125 193.210938 C 24.054688 193.207031 24.074219 193.199219 24.09375 193.195312 C 24.105469 193.191406 24.085938 193.203125 24.078125 193.207031 C 24.066406 193.214844 24.054688 193.222656 24.046875 193.226562 C 24.03125 193.238281 24.015625 193.25 24 193.257812 C 23.976562 193.273438 23.960938 193.285156 23.960938 193.285156 L 24.238281 194.371094 C 24.242188 194.367188 24.246094 194.363281 24.25 194.359375 C 24.28125 194.328125 24.316406 194.292969 24.355469 194.253906 C 24.398438 194.214844 24.460938 194.175781 24.515625 194.132812 C 24.546875 194.109375 24.578125 194.089844 24.609375 194.066406 C 24.644531 194.042969 24.683594 194.019531 24.722656 193.996094 C 24.800781 193.949219 24.886719 193.898438 24.972656 193.847656 C 25.167969 193.75 25.367188 193.632812 25.617188 193.527344 C 26.09375 193.296875 26.695312 193.070312 27.378906 192.847656 C 27.550781 192.792969 27.726562 192.738281 27.90625 192.679688 C 28.089844 192.632812 28.28125 192.582031 28.46875 192.527344 C 28.566406 192.503906 28.664062 192.476562 28.761719 192.449219 C 28.863281 192.429688 28.960938 192.40625 29.0625 192.382812 C 29.265625 192.335938 29.472656 192.289062 29.683594 192.242188 C 30.105469 192.175781 30.550781 192.074219 31.003906 192.023438 C 31.230469 191.996094 31.464844 191.953125 31.703125 191.929688 C 31.9375 191.910156 32.179688 191.886719 32.417969 191.867188 C 32.664062 191.835938 32.910156 191.832031 33.15625 191.824219 C 33.40625 191.8125 33.664062 191.796875 33.914062 191.792969 C 34.171875 191.792969 34.429688 191.792969 34.691406 191.796875 C 34.820312 191.796875 34.953125 191.792969 35.082031 191.800781 L 35.476562 191.824219 C 35.746094 191.839844 36.015625 191.851562 36.28125 191.867188 C 36.554688 191.894531 36.824219 191.925781 37.09375 191.957031 C 37.648438 191.996094 38.1875 192.113281 38.75 192.195312 C 40.980469 192.582031 43.265625 193.328125 45.421875 194.296875 C 47.578125 195.261719 49.570312 196.496094 51.269531 197.664062 C 51.695312 197.96875 52.097656 198.257812 52.484375 198.535156 C 52.582031 198.605469 52.679688 198.671875 52.773438 198.746094 C 52.863281 198.816406 52.953125 198.890625 53.042969 198.960938 C 53.21875 199.105469 53.394531 199.246094 53.5625 199.382812 C 53.902344 199.652344 54.21875 199.90625 54.511719 200.144531 C 54.585938 200.203125 54.660156 200.261719 54.726562 200.320312 C 54.796875 200.378906 54.863281 200.4375 54.925781 200.496094 C 55.058594 200.613281 55.179688 200.726562 55.296875 200.832031 C 55.777344 201.257812 56.148438 201.59375 56.402344 201.820312 C 56.53125 201.933594 56.628906 202.023438 56.695312 202.082031 C 56.730469 202.113281 56.757812 202.132812 56.773438 202.148438 C 56.792969 202.171875 56.804688 202.183594 56.804688 202.183594 C 56.804688 202.183594 57.136719 202.527344 57.636719 203.042969 C 58.125 203.5625 58.820312 204.226562 59.5 204.890625 C 60.203125 205.539062 60.894531 206.191406 61.445312 206.65625 C 61.984375 207.121094 62.34375 207.433594 62.34375 207.433594 C 62.34375 207.433594 62.542969 207.597656 62.914062 207.902344 C 63.101562 208.054688 63.332031 208.242188 63.597656 208.460938 C 63.871094 208.679688 64.191406 208.921875 64.542969 209.195312 C 65.960938 210.285156 68.042969 211.777344 70.660156 213.3125 C 71.976562 214.070312 73.414062 214.847656 74.96875 215.582031 C 76.527344 216.3125 78.191406 217.007812 79.929688 217.628906 C 83.40625 218.875 87.183594 219.800781 90.9375 220.308594 C 94.6875 220.832031 98.410156 220.933594 101.824219 220.757812 C 103.535156 220.667969 105.167969 220.507812 106.699219 220.308594 C 108.230469 220.105469 109.660156 219.855469 110.96875 219.589844 C 113.003906 219.171875 114.734375 218.707031 116.089844 218.296875 C 123.867188 218.660156 132.511719 216.355469 140.34375 211.25 C 156.652344 200.621094 163.257812 181.886719 155.101562 169.40625 C 146.945312 156.929688 127.113281 155.429688 110.804688 166.058594 C 94.5 176.6875 87.890625 195.417969 96.046875 207.898438 C 97.976562 210.847656 100.554688 213.183594 103.585938 214.890625 C 103.242188 214.789062 102.894531 214.683594 102.550781 214.578125 C 99.605469 213.644531 96.601562 212.417969 93.828125 210.910156 C 91.050781 209.414062 88.511719 207.65625 86.371094 205.828125 C 85.296875 204.910156 84.324219 203.984375 83.445312 203.074219 C 82.566406 202.164062 81.796875 201.261719 81.113281 200.417969 C 79.757812 198.71875 78.777344 197.222656 78.125 196.160156 C 77.964844 195.890625 77.816406 195.65625 77.695312 195.445312 C 77.578125 195.234375 77.476562 195.058594 77.394531 194.910156 C 77.230469 194.621094 77.140625 194.46875 77.140625 194.46875 C 77.140625 194.46875 76.984375 194.175781 76.753906 193.738281 C 76.515625 193.308594 76.234375 192.703125 75.941406 192.121094 C 75.667969 191.515625 75.386719 190.929688 75.199219 190.464844 C 75.007812 190.011719 74.878906 189.710938 74.878906 189.710938 C 74.878906 189.710938 74.878906 189.699219 74.867188 189.679688 C 74.855469 189.652344 74.832031 189.609375 74.804688 189.558594 C 74.75 189.449219 74.667969 189.289062 74.5625 189.078125 C 74.347656 188.660156 74.03125 188.046875 73.628906 187.261719 C 73.527344 187.066406 73.421875 186.859375 73.308594 186.640625 C 73.25 186.53125 73.195312 186.421875 73.136719 186.308594 C 73.074219 186.195312 73.007812 186.082031 72.9375 185.964844 C 72.667969 185.5 72.378906 184.996094 72.066406 184.453125 C 71.910156 184.183594 71.746094 183.90625 71.578125 183.617188 C 71.496094 183.472656 71.410156 183.328125 71.324219 183.179688 C 71.238281 183.03125 71.136719 182.886719 71.042969 182.738281 C 70.65625 182.140625 70.246094 181.511719 69.820312 180.855469 C 68.058594 178.253906 65.824219 175.238281 62.949219 172.234375 C 62.222656 171.488281 61.460938 170.742188 60.6875 169.984375 C 59.898438 169.242188 59.0625 168.515625 58.222656 167.769531 C 57.789062 167.410156 57.34375 167.058594 56.902344 166.703125 C 56.453125 166.347656 56.011719 165.984375 55.550781 165.640625 C 55.078125 165.300781 54.609375 164.960938 54.136719 164.621094 C 53.664062 164.285156 53.191406 163.941406 52.695312 163.628906 C 51.707031 162.992188 50.722656 162.339844 49.6875 161.765625 C 49.171875 161.472656 48.660156 161.175781 48.144531 160.890625 C 47.613281 160.617188 47.089844 160.347656 46.566406 160.082031 C 46.300781 159.945312 46.039062 159.8125 45.773438 159.679688 C 45.507812 159.550781 45.238281 159.433594 44.972656 159.308594 C 44.4375 159.066406 43.902344 158.824219 43.367188 158.585938 C 42.832031 158.355469 42.289062 158.144531 41.753906 157.929688 C 41.214844 157.714844 40.679688 157.5 40.140625 157.316406 C 39.597656 157.128906 39.0625 156.941406 38.527344 156.753906 C 37.996094 156.578125 37.457031 156.421875 36.925781 156.257812 C 35.867188 155.925781 34.808594 155.671875 33.777344 155.402344 C 33.261719 155.28125 32.746094 155.167969 32.238281 155.058594 C 31.984375 155.003906 31.730469 154.949219 31.480469 154.898438 C 31.230469 154.847656 30.980469 154.804688 30.734375 154.757812 C 30.234375 154.667969 29.746094 154.578125 29.261719 154.496094 C 28.777344 154.425781 28.300781 154.355469 27.832031 154.289062 C 25.953125 154.035156 24.207031 153.882812 22.609375 153.816406 C 21.820312 153.773438 21.054688 153.769531 20.351562 153.761719 C 19.992188 153.765625 19.648438 153.769531 19.320312 153.773438 C 19.152344 153.777344 18.992188 153.78125 18.835938 153.78125 C 18.671875 153.789062 18.511719 153.796875 18.355469 153.804688 C 17.136719 153.847656 16.070312 153.949219 15.261719 154.050781 C 15.046875 154.082031 14.859375 154.109375 14.695312 154.132812 C 14.625 154.140625 14.511719 154.164062 14.425781 154.179688 C 14.335938 154.191406 14.257812 154.207031 14.1875 154.21875 C 14.117188 154.234375 14.050781 154.246094 14 154.253906 C 13.980469 154.257812 13.976562 154.257812 13.976562 154.257812 L 14.308594 155.566406 C 14.308594 155.566406 14.5625 155.523438 14.9375 155.453125"/></g></g></g><g clip-path="url(#W)"><g clip-path="url(#X)"><g clip-path="url(#Y)"><path fill="#FFF" d="M 23.589844 191.738281 C 23.539062 191.53125 23.496094 191.328125 23.449219 191.125 C 23.484375 191.289062 23.523438 191.453125 23.558594 191.617188 C 23.570312 191.660156 23.578125 191.699219 23.589844 191.738281"/></g></g></g><g clip-path="url(#Z)"><g clip-path="url(#aa)"><g clip-path="url(#ab)"><path fill="#FFF" d="M 23.441406 191.101562 C 23.429688 191.050781 23.417969 191.003906 23.40625 190.953125 C 23.421875 191.011719 23.433594 191.066406 23.449219 191.125 C 23.445312 191.117188 23.445312 191.109375 23.441406 191.101562"/></g></g></g><g clip-path="url(#ac)"><g clip-path="url(#ad)"><g clip-path="url(#ae)"><path fill="#FFF" d="M 22.910156 188.890625 C 22.90625 188.882812 22.90625 188.875 22.902344 188.867188 C 23.011719 189.320312 23.117188 189.765625 22.910156 188.890625"/></g></g></g><g clip-path="url(#af)"><g clip-path="url(#ag)"><g clip-path="url(#ah)"><path fill="#FFF" d="M 23.921875 193.140625 C 23.800781 192.621094 23.851562 192.847656 23.921875 193.140625"/></g></g></g><g clip-path="url(#ai)"><g clip-path="url(#aj)"><g clip-path="url(#ak)"><path fill="#FFF" d="M 23.324219 190.597656 C 23.351562 190.714844 23.378906 190.832031 23.40625 190.953125 C 23.378906 190.832031 23.351562 190.714844 23.324219 190.597656"/></g></g></g></svg>